<svg xmlns="http://www.w3.org/2000/svg" width="412" viewBox="0 0 309 86.25" height="115" version="1.0"><defs><clipPath id="a"><path d="M3.328 3.215h77.09v77.09H3.328Zm0 0"/></clipPath></defs><g clip-path="url(#a)"><path fill="#f97316" d="M80.418 72.598a7.709 7.709 0 0 1-7.711 7.707H11.035a7.705 7.705 0 0 1-7.707-7.707V10.926a7.71 7.71 0 0 1 7.707-7.711h61.672a7.712 7.712 0 0 1 7.711 7.71Zm0 0"/></g><path fill="none" d="M30.89 62.324v-5.511h22.06v5.511Zm-5.511-5.511V18.21h5.512v38.602Zm27.57 0V18.21h5.516v38.602Zm0 0" stroke="#fff" stroke-width="5.735"/><path d="M96.523 32.878h9.296V22.706h6.578v10.172h12.641v5.937h-12.64v17.547c0 1.086.316 1.938.953 2.563.644.617 1.546.922 2.703.922h8.39v5.984h-8.687c-3.074 0-5.5-.86-7.282-2.578-1.773-1.719-2.656-4.016-2.656-6.89V38.815h-9.296Zm38.103 32.953v-5.984h11.921V38.815h-10.42v-5.937h16.78v26.969h9.704v5.984Zm13.609-45.828h1.375c1.238 0 2.234.351 2.984 1.047.758.699 1.141 1.625 1.141 2.781 0 1.168-.383 2.09-1.14 2.766-.75.68-1.747 1.015-2.985 1.015h-1.375c-1.242 0-2.23-.336-2.969-1.015-.742-.676-1.11-1.598-1.11-2.766 0-1.156.368-2.082 1.11-2.781.739-.696 1.727-1.047 2.969-1.047Zm36.416 2.094v33.547c0 1.324.36 2.355 1.078 3.093.719.742 1.719 1.11 3 1.11h9.828v5.984h-10.125c-3.242 0-5.777-.906-7.61-2.719-1.835-1.82-2.75-4.312-2.75-7.469V28.034h-10.67v-5.937Zm21.869 43.734v-5.984h11.921V38.815h-10.42v-5.937h16.78v26.969h9.704v5.984Zm13.609-45.828h1.375c1.238 0 2.234.351 2.984 1.047.758.699 1.141 1.625 1.141 2.781 0 1.168-.383 2.09-1.14 2.766-.75.68-1.747 1.015-2.985 1.015h-1.375c-1.242 0-2.23-.336-2.969-1.015-.742-.676-1.11-1.598-1.11-2.766 0-1.156.368-2.082 1.11-2.781.739-.696 1.727-1.047 2.969-1.047Zm20.181 12.875h9.296V22.706h6.578v10.172h12.641v5.937h-12.64v17.547c0 1.086.316 1.938.953 2.563.644.617 1.546.922 2.703.922h8.39v5.984h-8.687c-3.074 0-5.5-.86-7.282-2.578-1.773-1.719-2.656-4.016-2.656-6.89V38.815h-9.296Zm38.104 32.953v-5.984h11.921V38.815h-10.42v-5.937h16.78v26.969h9.704v5.984Zm13.609-45.828h1.375c1.238 0 2.234.351 2.984 1.047.758.699 1.141 1.625 1.141 2.781 0 1.168-.383 2.09-1.14 2.766-.75.68-1.747 1.015-2.985 1.015h-1.375c-1.242 0-2.23-.336-2.969-1.015-.742-.676-1.11-1.598-1.11-2.766 0-1.156.368-2.082 1.11-2.781.739-.696 1.727-1.047 2.969-1.047Zm0 0" fill="#fff"/></svg>
